<?xml version="1.0" encoding="utf-8"?>
<!-- Generator: Adobe Illustrator 24.0.1, SVG Export Plug-In . SVG Version: 6.00 Build 0)  -->
<svg version="1.1" xmlns="http://www.w3.org/2000/svg" xmlns:xlink="http://www.w3.org/1999/xlink" x="0px" y="0px"
	 viewBox="0 0 96.4502716 108.4868774" style="enable-background:new 0 0 96.4502716 108.4868774;" xml:space="preserve">
<style type="text/css">
	.st0{fill:#FFFFFF;}
	.st1{stroke:#FF00FF;stroke-width:0.25;stroke-miterlimit:10;}
	.st2{fill:none;stroke:#FF00FF;stroke-width:0.25;stroke-miterlimit:10;}
	.st3{fill:#D44D6E;stroke:#FF00FF;stroke-width:0.25;stroke-miterlimit:10;}
</style>
<g id="Layer_1">
	
		<image style="display:none;overflow:visible;" width="1920" height="988" xlink:href="BAFA171E.jpg"  transform="matrix(0.0770833 0 0 0.1012209 -28.7748642 4.2434406)">
	</image>
	<g>
		<g>
			<path class="st0" d="M12.8208799,29.7859936c1.930357,0,1.9335546-3,0-3
				C10.890523,26.7859936,10.8873262,29.7859936,12.8208799,29.7859936L12.8208799,29.7859936z"/>
		</g>
	</g>
	<g id="Layer_3_1_">
		<polygon class="st1" points="48.1251335,108.3435059 0.125134,80.8435059 0.225134,26.7435036 48.3251343,0.1435027 
			96.3251343,27.7435036 96.2251282,81.8435059 		"/>
		<polygon class="st1" points="47.9251366,99.6435013 7.2251339,76.3435059 7.3251343,30.5435028 48.1251335,8.0435028 
			88.7251282,31.343502 88.6251297,77.1435013 		"/>
		<path class="st2" d="M57.7251358,98.5435028l1.5-0.8000031l0.0999985,0.0999985
			c0.2000008,0.3000031,0.2999992,0.4000015,0.2999992,0.6999969c0.0999985,0.3000031,0.0999985,0.4000015,0,0.6999969
			c-0.0999985,0.5-0.5,1-1,1.3000031s-1.0999985,0.4000015-1.7000008,0.1999969
			c-1.2000008-0.3000031-1.9000015-1.4000015-1.5999985-2.5c0.2000008-0.5,0.5-1,1.0999985-1.3000031
			c0.2999992-0.1999969,0.5999985-0.3000031,0.9000015-0.3000031c0.4000015,0,0.7000008,0,1.0999985,0.1999969l-0.2000008,0.5
			c-0.5-0.1999969-1-0.1999969-1.5,0c-0.4000015,0.1999969-0.7000008,0.5-0.7999992,0.9000015s0,0.8000031,0.2000008,1.0999985
			c0.2000008,0.4000015,0.5999985,0.5999985,1.0999985,0.6999969c0.4000015,0.0999985,0.7999992,0,1.0999985-0.1999969
			s0.5-0.4000015,0.5999985-0.5999985c0.0999985-0.3000031,0.0999985-0.5,0-0.8000031l-0.9000015,0.5L57.7251358,98.5435028z"/>
		<polygon class="st2" points="60.1251335,95.0435028 60.7251358,94.7434998 63.025135,98.0435028 62.4251366,98.3435059 		"/>
		<polygon class="st2" points="64.2251282,93.5435028 66.1251297,96.4435043 65.5251312,96.6435013 63.6251335,93.8435059 
			62.8251343,94.3435059 62.525135,93.7434998 64.7251282,92.6435013 65.0251312,93.0435028 		"/>
		<path class="st2" d="M69.2251282,90.4435043l0.4000015,0.5999985c-0.4000015-0.0999985-0.9000015,0-1.3000031,0.1999969
			s-0.5999985,0.5-0.6999969,0.9000015s0,0.8000031,0.1999969,1.0999985c0.1999969,0.4000015,0.5999985,0.5999985,1,0.6999969
			s0.9000015,0.0999985,1.1999969-0.1999969c0.1999969-0.0999985,0.3000031-0.1999969,0.5-0.4000015
			c0.0999985-0.0999985,0.0999985-0.1999969,0.1999969-0.3000031c0.0999985-0.0999985,0.0999985-0.1999969,0.1999969-0.4000015
			l0.4000015,0.5999985c-0.1999969,0.4000015-0.5,0.5999985-0.9000015,0.8000031
			c-0.5,0.3000031-1.0999985,0.4000015-1.6999969,0.1999969c-0.5999985-0.0999985-1.0999985-0.4000015-1.4000015-1
			c-0.1999893-0.1999893-0.2999878-0.6999893-0.1999893-1.1999893c0.0999985-0.5999985,0.5-1.1999969,1-1.4000015
			C68.4251328,90.5435028,68.8251343,90.4435043,69.2251282,90.4435043"/>
		<polygon class="st2" points="76.6251297,86.2434998 77.2251282,85.9435043 79.4251328,89.3435059 78.8251343,89.6435013 		"/>
		<polygon class="st2" points="81.5251312,88.1435013 79.2251282,84.5435028 83.5251312,85.6435013 82.0251312,83.3435059 
			82.6251297,83.0435028 84.9251328,86.5435028 80.5251312,85.4435043 82.1251297,87.8435059 		"/>
		<g>
			<path class="st2" d="M74.2251282,88.4435043c-0.1999969,0.0999985-0.5,0-0.5-0.1999969
				c0-0.0999985,0-0.0999985-0.0999985-0.1999969c-0.0999985-0.1999969-0.3000031-0.3000031-0.5-0.3000031
				c-0.4000015,0.0999985-0.6999969,0.1999969-1.0999985,0.3000031c0,0,0,0-0.0999985,0s-0.0999985,0-0.0999985-0.0999985
				c0.0999985-0.4000015,0.1999969-0.9000015,0.4000015-1.3000031c0-0.0999985,0.0999985-0.0999985,0.0999985-0.0999985
				c0.1999969,0.0999985,0.4000015,0.0999985,0.5999985,0.1999969c0,0,0.0999985,0,0.0999985,0.0999985
				c0.4000015,0.5,0.9000015,0.9000015,1.3000031,1.4000015c0.0999985,0.0999985,0.0999985,0.0999985,0,0.1999969
				C74.3251343,88.3435059,74.2251282,88.4435043,74.2251282,88.4435043z"/>
			<path class="st2" d="M73.3251343,89.9435043c0.1999969-0.0999985,0.5,0,0.5,0.1999969
				c0,0.0999985,0,0.1999969,0.0999985,0.3000031c0.0999985,0.1999969,0.3000031,0.1999969,0.5,0.1999969
				c0.4000015-0.0999985,0.6999969-0.1999969,1.0999985-0.3000031c0.0999985,0,0.1999969,0,0.0999985,0.0999985
				c-0.0999985,0.4000015-0.1999969,0.8000031-0.3000031,1.1999969c0,0.0999985-0.0999985,0.0999985-0.1999969,0.0999985
				c-0.1999969-0.0999985-0.4000015-0.0999985-0.5-0.1999969c-0.0999985,0-0.0999985,0-0.0999985-0.0999985
				c-0.4000015-0.5-0.9000015-0.9000015-1.3000031-1.3000031c-0.0999985-0.0999985-0.0999985-0.0999985,0-0.1999969
				C73.2251282,90.0435028,73.2251282,89.9435043,73.3251343,89.9435043z"/>
			<path class="st2" d="M74.3251343,89.6435013c0.0999985-0.0999985,0.1999969-0.0999985,0.3000031,0
				c0.0999985,0,0.0999985,0,0.1999969,0c0.1999969,0.0999985,0.5-0.0999985,0.5-0.3000031
				c0.1999969-0.5999985,0.3000031-1.0999985,0.5-1.6999969c0-0.0999985,0.0999985-0.0999985,0.1999969-0.0999985
				s0.1999969,0.0999985,0.4000015,0.0999985c0.0999985,0,0.0999985,0.0999985,0.0999985,0.0999985
				c-0.1999969,0.6999969-0.4000015,1.3000031-0.5999985,2c0,0.0999985,0,0.0999985-0.0999985,0.0999985
				c-0.5,0.0999985-0.9000015,0.1999969-1.4000015,0.4000015c-0.0999985,0-0.0999985,0-0.0999985-0.0999985
				C74.1251297,90.0435028,74.1251297,89.9435043,74.3251343,89.6435013
				C74.2251282,89.7434998,74.3251343,89.7434998,74.3251343,89.6435013z"/>
			<path class="st2" d="M73.1251297,88.7434998c-0.0999985,0-0.1999969,0.0999985-0.1999969,0h-0.0999985
				c-0.1999969-0.0999985-0.5,0-0.5999985,0.3000031v0.0999985c-0.1999969,0.5999985-0.3000031,1.0999985-0.5,1.6999969
				c0,0.0999985-0.0999985,0.0999985-0.1999969,0.0999985s-0.1999969-0.0999985-0.3000031-0.0999985
				c-0.0999985,0-0.0999985-0.0999985-0.0999985-0.0999985c0.1999969-0.6999969,0.4000015-1.3000031,0.5999985-2
				c0-0.0999985,0-0.0999985,0.0999985-0.0999985c0.5-0.0999985,0.9000015-0.1999969,1.4000015-0.3000031
				c0.0999985,0,0.0999985,0,0.0999985,0.0999985C73.3251343,88.3435059,73.3251343,88.5435028,73.1251297,88.7434998
				C73.2251282,88.6435013,73.1251297,88.7434998,73.1251297,88.7434998z"/>
			<path class="st2" d="M72.9251328,89.2434998c0.0999985,0.1999969,0.0999985,0.3000031,0,0.5l-0.0999985,0.0999985
				c-0.1999969,0.1999969-0.1999969,0.5,0,0.6999969s0.5,0.5,0.6999969,0.6999969c0,0,0,0,0.0999985,0.0999985v0.0999985h-0.0999985
				c-0.4000015-0.0999985-0.6999969-0.1999969-1.0999985-0.3000031c-0.0999985,0-0.0999985,0-0.1999969,0
				s-0.0999985-0.0999985-0.0999985-0.1999969c0.0999985-0.5,0.3000031-1,0.4000015-1.5
				c0-0.0999985,0-0.0999985,0.0999985-0.1999969c0-0.0999985,0.0999985-0.0999985,0.0999985-0.0999985
				C72.8251343,89.1435013,72.9251328,89.1435013,72.9251328,89.2434998z"/>
			<path class="st2" d="M74.5251312,89.1435013c-0.0999985-0.1999969-0.0999985-0.3000031,0-0.5l0.0999985-0.0999985
				c0.1999969-0.1999969,0.1999969-0.5,0-0.5999985c-0.1999969-0.1999969-0.5-0.5-0.6999969-0.6999969
				c0,0-0.0999985-0.0999985,0-0.0999985c0-0.0999985,0.0999985,0,0.0999985,0
				c0.4000015,0.0999985,0.8000031,0.1999969,1.1999969,0.4000015c0.0999985,0,0.0999985,0.0999985,0.0999985,0.0999985
				c-0.1999969,0.5999985-0.3000031,1.0999985-0.5,1.5999985c0,0.0999985-0.0999985,0.0999985-0.0999985,0.0999985
				C74.6251297,89.2434998,74.5251312,89.2434998,74.5251312,89.1435013z"/>
			<path class="st3" d="M73.9251328,89.5435028c-0.1999969,0.0999985-0.5,0-0.5999985-0.1999969s0-0.5,0.1999969-0.5999985
				s0.5,0,0.5999985,0.1999969C74.2251282,89.2434998,74.1251297,89.4435043,73.9251328,89.5435028z"/>
		</g>
	</g>
</g>
<g id="Layer_2">
	<path class="st2" d="M40.7198448,76.1834335c0.652977,0.2098007,1.3322563-0.1762619,1.3902473-1.0956879
		c0.0198555-0.3148193-0.1609497-0.6041336-0.3444443-0.860733c-0.6675491-0.9334793-1.4624825-1.7628784-2.2193832-2.6223145
		c-0.6440582-0.731308-1.7269554-3.5680847-2.9101143-2.8321609c-0.3490067,0.2170868-0.5763969,0.5798798-0.7915421,0.9300919
		c-0.1321716,0.2151413-0.2697334,0.4576721-0.2201004,0.705246c0.024437,0.1218872,0.0924606,0.2299423,0.1603279,0.3340988
		c1.2184029,1.869873,2.7914162,3.4774628,4.3538475,5.0719147C40.3169518,75.9957428,40.517128,76.1183014,40.7198448,76.1834335z"
		/>
	<path class="st2" d="M42.4115372,74.0605011c0.0046158-0.0335999,0.0307884-0.0683289,0.0558815-0.0946503
		c0.2489548-0.2611084,0.4979057-0.5222244,0.7468605-0.7833328c0.0893288-0.093689,0.1830902-0.1962051,0.2012825-0.3243713
		c0.0187302-0.1319962-0.0471725-0.2599716-0.1147079-0.3749237c-0.6238861-1.0618896-1.5515671-1.9039154-2.3927994-2.8034668
		c-0.8412323-0.8995438-1.6311111-1.9219055-1.8679924-3.1305161c-0.1872787-0.1877136-0.4141045-0.1291504-0.6194077,0.0386581
		c-0.3227463,0.2638168-0.6504784,0.5330429-0.8817177,0.8798752c-0.2312393,0.3468246-0.3557587,0.7892456-0.2308006,1.1869278
		c0.194725,0.6197281,0.8869934,1.3532104,1.2975044,1.8450317c0.3112869,0.3729401,0.6225777,0.7458801,0.9338646,1.1188202
		c0.6509628,0.779892,1.2778282,1.6502686,2.0197525,2.3461609c0.2228279,0.2090073,1.1456413,0.5860825,0.8613358,0.1397934
		C42.4117699,74.0906601,42.4094505,74.0756989,42.4115372,74.0605011z"/>
	<path class="st2" d="M47.1971092,80.6180267c0.2949905,0.2213287,0.6440277,0.4447174,1.0055809,0.371994
		c-0.0080032-0.3090897-0.0287094-0.6178513-0.0620537-0.9252396c-0.0172653-0.1591873-0.040081-0.3241272-0.127327-0.4583969
		c-0.066349-0.1021042-0.1648674-0.178299-0.2614632-0.252449c-1.5378647-1.180481-3.0757332-2.3609695-4.6135979-3.5414505
		c-0.5728722-0.4397507-1.2649841,0.3150177-1.2297668,0.9412994c0.0396538,0.7052536,0.9476242,0.9209137,1.4685898,1.1694489
		C44.8033142,78.603653,45.9446068,79.6782913,47.1971092,80.6180267z"/>
	<path class="st2" d="M48.0874901,77.2170868c-0.5034752-0.1235352-0.9147301-0.4764709-1.2981758-0.8253479
		c-0.7972527-0.7253876-1.5656853-1.4824524-2.3028755-2.2688065c-0.2162857-0.2307053-0.5550346-0.4809418-0.8113937-0.2957687
		c-0.0772247,0.0557785-0.1258659,0.1418076-0.172123,0.22509c-0.1408386,0.2535782-0.2816772,0.5071564-0.4225197,0.7607346
		c0.0680084-0.0686111,0.0971489-0.1734161,0.0743217-0.2672882c-0.129303,0.1705322-0.3018074,0.5354538-0.2256966,0.735466
		c0.0475922,0.125061,0.1667366,0.2058868,0.2790833,0.2785645c1.2964172,0.8386688,2.5928345,1.67733,3.8892517,2.5159988
		c0.0829391,0.0536499,0.169445,0.1086655,0.2673454,0.1218185c0.203537,0.0273438,0.3919258-0.141716,0.4585075-0.3359909
		S48.113678,77.4207764,48.0874901,77.2170868z"/>
	<path class="st2" d="M48.234951,80.884758c0.6914978-0.0080872,1.4056129-0.1649246,1.9497032-0.5917816
		c0.5440865-0.426857,0.8781166-1.1632156,0.6939278-1.8297882c-0.0475349-0.17202-0.1777687-0.11689-0.2076874-0.2928314
		c-0.4646149,0.0790024-0.7992058,0.4837341-1.2261848,0.6832352c-0.5730362,0.2677383-1.3617096,0.2030945-1.7022934,0.7360687
		c-0.1857185,0.2906265-0.1475296,0.7052307,0.0881577,0.9570389C48.0662575,80.7985077,47.9326859,81.0508652,48.234951,80.884758z
		"/>
	<path class="st2" d="M47.6785126,77.1055527c0.7109146-0.0037766,1.4189949-0.2318649,1.9984512-0.6437454
		c0.1828918-0.1299973,0.3752823-0.285202,0.5994415-0.2751312c0.2244034,0.0100784,0.4114456,0.1927948,0.4958916,0.4009476
		c0.0844421,0.2081451,0.0868149,0.4391327,0.0879898,0.6637573c0.0035706,0.6819153-0.8441238,1.0114212-1.4530067,1.3184891
		c-0.4816093,0.2428741-1.0622826,0.4733658-1.5380058,0.2191544c-0.3379364-0.1805878-0.5247116-0.5872421-0.4867897-0.9685135
		C47.4204063,77.4392319,47.358448,77.3161926,47.6785126,77.1055527z"/>
	<path class="st2" d="M34.7582169,68.9449615c0.1349716-0.0515747,0.2441711-0.1525345,0.3497429-0.2511902
		c0.3891907-0.3636856,0.7783852-0.7273712,1.1675797-1.0910568c0.3380623-0.3159103,0.6815033-0.6385498,0.9089127-1.0414963
		c0.2274094-0.4029541,0.3246803-0.9062805,0.1433983-1.3319778c-0.2181587,0.1202164-0.3654938,0.3337479-0.5150604,0.533432
		c-0.5661011,0.755722-1.2703285,1.3996277-2.0662155,1.9064331c-0.3151093,0.2006531-0.8510857,0.3320847-0.8121452,0.766449
		C33.9638786,68.7640076,34.4609718,69.058548,34.7582169,68.9449615z"/>
	<path class="st2" d="M33.8809624,67.328743c-0.0730476,0.0635681-0.1613579,0.1312637-0.2563477,0.112442
		c-0.0646744-0.0128174-0.1143837-0.0633698-0.1579094-0.1128998c-0.1618385-0.1841583-0.2993202-0.3897018-0.4077339-0.6095963
		c-0.0278969-0.0565796-0.0544739-0.1202774-0.0374107-0.1810074c0.0177956-0.0633469,0.0774078-0.1042175,0.1325989-0.1400452
		c0.560955-0.3640747,3.1841469-2.9322662,3.4702606-2.7207947C37.6591988,64.4416656,34.3612938,66.9107666,33.8809624,67.328743z"
		/>
	<path class="st2" d="M33.4713173,65.5565796c-0.2038269,0.1700745-0.4292793,0.3444977-0.694252,0.3605652
		c-0.0718117-0.2155991-0.1436195-0.4311905-0.2154274-0.6467896c-0.022213-0.0666809-0.0446625-0.1377182-0.0280952-0.2060165
		c0.0193214-0.0796661,0.086834-0.1370163,0.1505623-0.1885834c0.4097443-0.3315506,3.0785637-2.8471603,3.4032631-2.1943665
		C36.4503937,63.4112206,33.856102,65.0366364,33.4713173,65.5565796z"/>
	<path class="st2" d="M35.7872925,61.8242226c0.0684776-0.2182274,0.1329956-0.4429436,0.2440605-0.6515923
		c0.2677345-0.5029526,0.5354691-1.0059052,0.8032036-1.5088539c0.6408424-1.2038574,1.3006172-2.5738144,0.897625-3.8767166
		c-0.0789108-0.2551193-0.1966171-0.4962349-0.3138542-0.7361717c-0.1539955-0.3151703-0.307991-0.6303444-0.4619865-0.9455147
		c-0.2725677-0.5578537-0.6169586-0.7974243-1.1360321-1.1081123c-0.4043617-0.2420235-0.8087273-0.4840508-1.213089-0.726078
		c-0.1310425-0.078434-0.2746086-0.1597862-0.4263573-0.1425552c-0.1530495,0.0173759-0.2757263,0.1308594-0.3815651,0.2427711
		c-1.0928764,1.1555748-1.6270332,2.7197952-2.0659962,4.2485352c-0.6474648,2.2548676-1.141573,4.7380486-0.2085209,6.8905029
		c-0.017168-0.1469727-0.034338-0.2939453-0.0515079-0.440918c-0.0314465,0.3093681-0.1283436,0.7212868-0.0271778,1.0153275
		c0.1011658,0.2940521,0.3170643,0.5610275,0.611187,0.661972c0.377758,0.1296539,0.8001366-0.036171,1.1103706-0.2877045
		c0.3102341-0.2515259,0.5449791-0.5828934,0.8314667-0.8611946c0.4219284-0.409874,1.0399399-0.6144791,1.4307365-1.047802
		C35.6151428,62.3446655,35.7041397,62.0892296,35.7872925,61.8242226z"/>
	<path class="st2" d="M36.4526405,53.5460968c0.0828171-0.1556625,0.0080338-0.3617325-0.1338234-0.4664536
		s-0.3312416-0.12397-0.5059814-0.100399c-0.717308,0.096756-1.181015,0.7942505-1.4957619,1.4460411
		c-0.1960487,0.4059792-0.375679,0.8358841-0.3770828,1.2867165c-0.0014,0.4508324,0.2149658,0.9292755,0.625412,1.1157837
		c0.5023842,0.2282829,1.0897102-0.0408478,1.5288658-0.3749809"/>
	<path class="st2" d="M47.827816,59.3839989c-1.0443878-0.7030067-2.0786171-1.3220901-3.2124977-1.8691521
		c-0.1201935,0.2476082-0.2403755,0.495224-0.3605804,0.7428246c-0.0800362,0.164856-0.2970047,0.455471-0.2249107,0.6499901
		c0.0697594,0.1882172,0.4450417,0.3258972,0.6086998,0.4204559c0.2344475,0.1354561,0.4716263,0.2661781,0.7113457,0.3920746
		c0.8129654,0.4269524,1.6542358,0.7936554,2.5161667,1.1096497c0.3284035,0.1203995,0.7146873,0.3013763,0.9579468-0.0798607
		c0.2324867-0.3643608-0.0718079-0.8179207-0.3613853-1.0399971C48.1876526,59.4991226,48.1152573,59.5774879,47.827816,59.3839989z
		"/>
	<path class="st2" d="M34.3663101,52.1708679c1.0855827-1.1568489,2.7694206-1.7190895,4.332283-1.4465675
		c0.6246605,0.1089249,1.2299805,0.3444672,1.7482681,0.709774c0.4715805,0.332386,0.8680344,0.7707291,1.1515465,1.2732162
		c0.1998787,0.3542633,0.3457794,0.7501144,0.3414993,1.1568527c-0.0057907,0.5501366-0.2829094,1.0608253-0.6032944,1.5080872
		c-0.8279305,1.1557922-2.2540092,2.2504272-3.6898613,2.4826546c0.062458-0.2996941,0.1249161-0.5993919,0.1873703-0.899086"/>
	<path class="st2" d="M41.2550201,54.9119911c0.0565758-0.1067009,0.1080818-0.2160912,0.1541824-0.3277473
		c0.0798798-0.1934853,0.1228867-0.3786545,0.09198-0.5875473c0.0122795,0.0830078-3.5280571,1.3400574-3.8861771,1.692688
		c0.1460037,0.1639442,0.1829643,0.3991203,0.171978,0.6183777c-0.0109863,0.2192535-0.0631828,0.435215-0.0688744,0.6546707
		c-0.0167809,0.6470528,2.110817-0.5298119,2.4084435-0.746727C40.5950661,55.8742409,40.9834785,55.4240837,41.2550201,54.9119911z
		"/>
	<path class="st2" d="M35.6537514,56.5476837c2.5865517,0.6685257,5.1625137,1.3780403,7.7265892,2.1281853
		c0.3233871-0.5457268,0.3755989-1.05373,0.6989899-1.5994568c-2.3328819-1.3507538-4.8667641-2.3536835-7.4921455-2.9654465
		c-0.1809273-0.04216-0.3729286-0.0821075-0.5494957-0.0243416c-0.1774635,0.0580635-0.3090706,0.2049026-0.4306602,0.3466072
		c-0.3448334,0.4018707-0.6998825,0.865406-0.6740532,1.3943138S35.2365189,56.873764,35.6537514,56.5476837z"/>
	<path class="st2" d="M48.9737358,61.1773109c0.137085-0.0035286,0.2637978-0.0812225,0.3563042-0.1824532
		c0.0925102-0.1012344,0.1559944-0.2249908,0.21838-0.3471527c0.0611916-0.1198235,0.2121277-0.3785324,0.0836754-0.4881935
		c-0.0869255-0.0742073-0.304882,0.0146828-0.3745995,0.0752563C49.1561356,60.3228416,48.8943329,61.1793556,48.9737358,61.1773109
		z"/>
	<path class="st2" d="M48.8805771,61.283371c0.1023102,0.264576,0.2046242,0.5291557,0.3069344,0.7937355
		c0.3396187-0.4082298,0.680809-0.771965,1.0704384-1.1327705c0.0214195-0.0198364,0.0442467-0.0420799,0.0479469-0.0710411
		c0.0033073-0.0259171-0.0096245-0.0508461-0.0222435-0.0737267c-0.1405945-0.2548676-0.2932663-0.5030746-0.4573326-0.7435074
		C49.6616707,60.5519295,49.2982445,60.9694405,48.8805771,61.283371z"/>
	<path class="st2" d="M50.2868843,62.5037308c0.0723076-0.0022049,0.1363029-0.0487747,0.2440033-0.1477013
		c0.0880547-0.0808792,0.9092674-1.0266685,0.9077301-1.0274544c-0.3481064-0.1773186-0.6962128-0.354641-1.0443192-0.5319633
		c-0.1042404-0.0531006-0.5949631,0.5757065-0.6556053,0.6440353c-0.074398,0.0838242-0.4577637,0.4220963-0.440937,0.5302162
		c0.0189972,0.122036,0.6201897,0.3732643,0.7363625,0.4371529C50.150238,62.4718781,50.2219162,62.5057106,50.2868843,62.5037308z"
		/>
</g>
<g id="Layer_3">
	<path class="st2" d="M61.2213516,76.2014313c-0.6426392,0.2396011-1.3389511-0.1148224-1.4391518-1.0306091
		c-0.0343094-0.3135757,0.1330032-0.6108932,0.3045044-0.8756561c0.6239243-0.9631882,1.3798866-1.8282623,2.0964699-2.7215805
		c0.6097565-0.7601471,1.5610809-3.6437149,2.776825-2.9629669c0.3586197,0.2008057,0.6024475,0.5527649,0.8334656,0.8927155
		c0.141922,0.2088394,0.2904892,0.4447861,0.2522964,0.6943817c-0.0188065,0.1228867-0.0817947,0.2339554-0.1447983,0.3411179
		c-1.1311417,1.923912-2.6285858,3.6021271-4.1160545,5.2667236C61.6151886,75.9954147,61.4208565,76.1270523,61.2213516,76.2014313
		z"/>
	<path class="st2" d="M59.4338417,74.1585236c-0.0061569-0.0333481-0.0338974-0.0668411-0.060173-0.09198
		c-0.2606964-0.2493896-0.521389-0.4987793-0.7820854-0.7481689c-0.0935402-0.0894852-0.1919174-0.1875763-0.2159805-0.3147659
		c-0.0247841-0.1309967,0.0351677-0.2618713,0.0973473-0.3798065c0.5744019-1.0894547,1.4623909-1.9732361,2.2613716-2.9105148
		c0.7989845-0.9372711,1.5410271-1.9948654,1.7220879-3.213089c0.1784515-0.1961288,0.4077301-0.148056,0.6205292,0.0101395
		c0.3345337,0.2486954,0.6742973,0.5025711,0.9212418,0.8384018c0.2469368,0.3358307,0.3916664,0.7720566,0.2851295,1.1750641
		c-0.1660309,0.6280289-0.8238411,1.3925629-1.2113075,1.9027328c-0.2938118,0.3868561-0.5876236,0.7737198-0.8814392,1.1605759
		c-0.614418,0.8089981-1.2006035,1.7072754-1.9097481,2.4365463c-0.2129784,0.2190247-1.1174812,0.6381302-0.8539963,0.179245
		C59.4349976,74.1886597,59.4366264,74.1736069,59.4338417,74.1585236z"/>
	<path class="st2" d="M54.9548264,80.9291382c-0.2845039,0.2346573-0.6229019,0.4738541-0.9874153,0.4178391
		c-0.006218-0.3091354,0.0002708-0.6185226,0.0194473-0.9271164c0.0099297-0.1598129,0.0251389-0.3256302,0.1061172-0.463768
		c0.0615845-0.1050491,0.1564941-0.1856918,0.2495804-0.2641983c1.4819641-1.2499466,2.9639282-2.4998856,4.4458961-3.7498322
		c0.5520477-0.4656143,1.2781258,0.2565308,1.2717438,0.8837662c-0.0071869,0.706337-0.9042816,0.9635086-1.413269,1.2357407
		C57.2534752,78.806839,56.162796,79.9328079,54.9548264,80.9291382z"/>
	<path class="st2" d="M53.9090233,77.572731c0.497261-0.1465454,0.8918533-0.5180206,1.2588539-0.8841629
		c0.7630615-0.7612686,1.4958725-1.5528641,2.1961288-2.3722763c0.2054482-0.2404099,0.5323372-0.5059509,0.796936-0.3327637
		c0.0797081,0.0521698,0.1322556,0.1358719,0.1822891,0.2169342c0.1523514,0.2468338,0.3046989,0.4936676,0.4570503,0.7405014
		c-0.0710907-0.0654068-0.1050224-0.1687622-0.0865288-0.2635803c0.1370049,0.1643982,0.3261032,0.5210037,0.2592659,0.7243118
		c-0.0417862,0.1271133-0.1570892,0.2133331-0.265976,0.2910995c-1.2564888,0.8973846-2.5129776,1.7947693-3.7694626,2.6921463
		c-0.0803833,0.0574112-0.1642685,0.1163483-0.2614632,0.1339874c-0.2020645,0.0366745-0.3980255-0.1235504-0.4734688-0.3145599
		C54.1272049,78.0133667,53.8922272,77.7774124,53.9090233,77.572731z"/>
	<path class="st2" d="M53.9303474,81.243309c-0.691143,0.0237122-1.4117126-0.1001282-1.9748497-0.5015182
		c-0.5631409-0.4013824-0.9306717-1.1216125-0.7773247-1.7959442c0.0395775-0.1740265,0.1722069-0.1249466,0.1940041-0.3020782
		c0.4677582,0.0575638,0.8206024,0.4464798,1.2563019,0.6261368c0.5847397,0.2411118,1.369606,0.140274,1.734333,0.6570282
		c0.1988869,0.2817764,0.1797981,0.6977005-0.0440598,0.960083C54.0948944,81.1493912,54.2399292,81.39534,53.9303474,81.243309z"/>
	<path class="st2" d="M54.3124352,77.4425201c-0.7103348,0.0289078-1.4281502-0.1663818-2.0259323-0.5511856
		c-0.1886749-0.1214523-0.3880005-0.2676544-0.6114578-0.2472839c-0.2237015,0.0203857-0.4021454,0.2115097-0.4769287,0.4233246
		c-0.0747871,0.2118073-0.0665359,0.4426575-0.0573845,0.667099c0.0277901,0.6813583,0.8897362,0.97155,1.5120926,1.2502899
		c0.4922676,0.2204742,1.0829239,0.4240265,1.5464554,0.1482086c0.3292732-0.1959305,0.4971581-0.6107407,0.4417458-0.9898682
		S54.6418495,77.6382141,54.3124352,77.4425201z"/>
	<path class="st2" d="M66.8438721,68.6965256c-0.1371994-0.0453186-0.2509232-0.1411591-0.3609161-0.234848
		c-0.4055099-0.3454056-0.8110123-0.6908188-1.2165146-1.0362244c-0.3522263-0.3000336-0.7101364-0.6065369-0.9558334-0.9986038
		c-0.245697-0.3920746-0.3660049-0.8903961-0.2044907-1.3239822c0.2234573,0.1100616,0.380455,0.3165894,0.5390472,0.5091934
		c0.6002426,0.7288895,1.3333359,1.3397369,2.15168,1.8094177c0.3239975,0.1859512,0.8654556,0.2926025,0.8465271,0.7282944
		C67.6290512,68.4792404,67.1460266,68.7963181,66.8438721,68.6965256z"/>
	<path class="st2" d="M67.6458893,67.0416718c0.0758972,0.0601425,0.1672287,0.1237106,0.2612457,0.1005402
		c0.0640182-0.0157776,0.111351-0.0685577,0.1525497-0.1200333c0.1532059-0.1914063,0.2810898-0.4030533,0.3792801-0.6277008
		c0.0252686-0.0578079,0.0488892-0.1226578,0.0290527-0.1825409c-0.0206909-0.0624619-0.0821228-0.1005478-0.1389008-0.1337967
		c-0.5771027-0.3378983-3.3155975-2.7827682-3.5916824-2.5583687C63.7389145,64.3313599,67.1468506,66.646225,67.6458893,67.0416718
		z"/>
	<path class="st2" d="M67.9736252,65.2525558c0.2114334,0.1605148,0.444664,0.3243942,0.7100983,0.3282547
		c0.061821-0.2186661,0.123642-0.4373322,0.185463-0.6559982c0.0191193-0.0676346,0.0382767-0.1396255,0.0185928-0.2070923
		c-0.0229645-0.0786972-0.0930405-0.1328812-0.1590729-0.1814651c-0.4245605-0.3123627-3.2062149-2.70261-3.5005569-2.0355759
		C64.8990631,63.2464333,67.5653381,64.7508545,67.9736252,65.2525558z"/>
	<path class="st2" d="M65.3255386,61.7191582c-0.4146194-0.4483719-0.9202347-0.7792244-1.3068466-1.2924461
		c-1.0964432-1.4554901-1.0542717-3.4911652-0.5466881-5.2413025c0.289135-0.996933,0.7041435-1.791893,1.5776787-2.3708916
		c0.392807-0.2603645,0.785614-0.5207253,1.178421-0.781086c0.1272964-0.0843773,0.2669754-0.1722412,0.4193497-0.1620102
		c0.1536942,0.0103226,0.281456,0.1180458,0.3923264,0.2249718c1.1448517,1.1041069,1.7503586,2.6421165,2.2591476,4.1490555
		c0.7504501,2.2227173,1.3582001,4.6805534,0.5251007,6.8736305c0.0103912-0.1476059,0.0207901-0.2952156,0.0311813-0.4428215
		c0.045639,0.3075943,0.1613693,0.7146225,0.0738297,1.0130081s-0.2909317,0.5750084-0.580101,0.689373
		c-0.3713989,0.1468811-0.8009567,0.0006485-1.1224289-0.236351s-0.5712051-0.5572205-0.870163-0.8220482
		c-0.5563583-0.4928246-1.3476639-0.7038536-1.7965393-1.3181763C65.4863892,61.9015846,65.407753,61.8080597,65.3255386,61.7191582
		z"/>
	<path class="st2" d="M64.4904404,53.3424301c-0.0898895-0.1516914-0.0246582-0.360981,0.112236-0.4721107
		c0.1368942-0.1111336,0.3251877-0.1390724,0.5008316-0.123558c0.7210007,0.0636749,1.2162857,0.7391129,1.5606689,1.3757401
		c0.2145004,0.3965378,0.4137115,0.8177261,0.4358368,1.2680206c0.0221252,0.4502907-0.1720123,0.9381752-0.5734482,1.1433563
		c-0.4913559,0.2511406-1.0904388,0.0092964-1.544487-0.3042908"/>
	<path class="st2" d="M53.3485146,59.7465668c1.0109596-0.7502823,2.0156326-1.4162598,3.1231613-2.0148773
		c0.1314507,0.2418213,0.2628899,0.4836464,0.394352,0.7254601c0.087532,0.1610031,0.3176308,0.4413376,0.2545586,0.6389618
		c-0.0610313,0.191227-0.4295883,0.3460159-0.588726,0.447998c-0.2279701,0.1460915-0.458889,0.2875824-0.6925659,0.4243622
		c-0.7924767,0.4638824-1.6160011,0.8688736-2.4624901,1.2241669c-0.3225174,0.1353683-0.7000771,0.3339157-0.9606018-0.0357361
		c-0.2489929-0.3532867,0.0341225-0.8203545,0.3131828-1.0555115C52.9943504,59.8781128,53.0702705,59.953064,53.3485146,59.7465668
		z"/>
	<path class="st2" d="M66.4641495,51.9221458c-1.1376266-1.1057167-2.8455353-1.5899429-4.3942108-1.2458572
		c-0.6189957,0.1375313-1.2128448,0.4006577-1.7137871,0.7894058c-0.4558029,0.3537178-0.8316841,0.8098221-1.0917892,1.3248138
		c-0.1833801,0.3630791-0.3109283,0.7652206-0.2879524,1.1713333c0.0310783,0.5492859,0.3313828,1.0466957,0.6719933,1.4787521
		c0.7569923,0.960228,2.2522888,2.1886787,3.5326233,2.2135811c-0.121067-0.430912-0.2122459-0.835743-0.0890808-1.2837105"/>
	<path class="st2" d="M59.7087517,54.9770889c-0.0614243-0.1039848-0.1179047-0.2108917-0.1690903-0.3203087
		c-0.0886917-0.1896095-0.1401672-0.3726082-0.1188965-0.5826988c1.0389938,0.20224,2.1763496,0.7872162,3.1972809,1.162735
		c0.3307343,0.1240234,0.4776573,0.13694,0.5589104,0.4380226c0.079689,0.295269-0.1318665,0.8880272-0.1774025,1.1957588
		c-0.0744629,0.5032082-1.7855682-0.4329681-2.1035347-0.6430168
		C60.4122734,55.9080124,60.0035591,55.4761734,59.7087517,54.9770889z"/>
	<path class="st2" d="M65.379303,56.3535233c-2.5530853,0.7867432-5.0937004,1.6139412-7.620575,2.4811821
		c-0.3481369-0.5302811-0.4236488-1.035347-0.7717896-1.5656281c2.2683144-1.4565849,4.7534027-2.5749512,7.3478775-3.3067741
		c0.1788025-0.0504341,0.3687668-0.0991707,0.5477982-0.0495796c0.1799469,0.049839,0.3181686,0.1904716,0.4461441,0.3264351
		c0.3629456,0.3855934,0.7389297,0.8323135,0.7374496,1.3618507C66.0647202,56.1305466,65.8110809,56.6600761,65.379303,56.3535233z
		"/>
	<path class="st2" d="M52.2862549,61.5906677c-0.1371002,0.0027771-0.2672539-0.0690117-0.364315-0.1658783
		c-0.0970688-0.0968742-0.1661758-0.2175827-0.2341118-0.3367462c-0.0666351-0.1168823-0.2293053-0.3683777-0.1060295-0.4838295
		c0.0834236-0.078125,0.3052368,0.0006485,0.3776627,0.0579529C52.0647621,60.7454872,52.3656693,61.5890579,52.2862549,61.5906677z
		"/>
	<path class="st2" d="M52.3841896,61.6923294c-0.0900345,0.2690048-0.1800728,0.5380058-0.2701111,0.8070107
		c-0.3580284-0.3921814-0.7155876-0.7398491-1.1213913-1.0823593c-0.0223083-0.0188293-0.0461349-0.0400009-0.0511589-0.0687599
		c-0.0044975-0.0257378,0.0072746-0.0512352,0.0188293-0.0746727c0.128727-0.2610626,0.269825-0.5160255,0.4226608-0.7637444
		C51.5702972,60.9975777,51.9525337,61.397934,52.3841896,61.6923294z"/>
	<path class="st2" d="M51.0354805,62.976059c-0.0723343,0.0011215-0.1384048-0.0424576-0.2505379-0.1363258
		c-0.0916786-0.0767441-0.9555092-0.9837799-0.9540062-0.9846344c0.3395844-0.1931381,0.6791687-0.3862762,1.0187531-0.5794144
		c0.1016922-0.0578384,0.6208038,0.5477409,0.6845284,0.6132126c0.0781708,0.0803146,0.4766846,0.4006004,0.4648438,0.5093803
		c-0.0133629,0.1227798-0.6023712,0.4013863-0.7154846,0.4705467C51.170517,62.9379539,51.1004715,62.9750519,51.0354805,62.976059z
		"/>
</g>
<g id="Layer_4">
	<path class="st2" d="M7.2251353,76.2434387l13-5l10,5c0,0,10,6,11,6s3,0,3,0l4-1l4,1h3l4-1l5-4l2,3l4-6l4-2h8h4l2.4999924-1"/>
	<circle class="st2" cx="33.2424622" cy="25.2477055" r="6"/>
	<path class="st2" d="M7.3159552,34.7474785l3.9091806,0.4959602l3,5l4,3l4-2c0,0,4,0,5,0s4,2,4,2l5-2c0,0,3-1,4-1s7-4,7-4s5,3,6,2
		s4-3,4-3l3-2c0,0,1-1.9999981,2-1.9999981s2,2.9999981,3,2.9999981s4-2,4-2s0-0.9999981,1-1.9999981s2-3,3-3s3,0,3,0
		l2.6827393-1.5339813"/>
</g>
<g id="Layer_5">
	<polygon class="st2" points="60.4084892,22.2169018 58.3775368,22.1280861 57.1529922,23.7507858 56.6098633,21.7917881 
		54.688179,21.1286201 56.3834572,20.0067101 56.4203377,17.9741497 58.0112076,19.2397671 59.9556847,18.6467438 
		59.2436142,20.5508499 	"/>
	<polygon class="st2" points="66.5604782,27.1626205 63.8671837,25.9598141 61.349472,27.4965973 61.6611328,24.5634346 
		59.4215508,22.6438389 62.3074646,22.0338497 63.4410362,19.3106918 64.9129639,21.8668613 67.8531418,22.1034527 
		65.8769302,24.2932415 	"/>
	<polygon class="st2" points="51.8439522,21.6137657 50.4772339,21.2735081 49.4221191,22.2064819 49.3233871,20.8015079 
		48.1100273,20.0863419 49.4157257,19.5582771 49.7209396,18.1833057 50.6266441,19.261919 52.0286331,19.1273079 
		51.2826881,20.321991 	"/>
	<polygon class="st2" points="54.739006,27.8863831 53.35466,27.3529415 52.1304169,28.1909161 52.2099648,26.7094803 
		51.0346909,25.8041039 52.4682007,25.4219685 52.9660835,24.0244389 53.7724953,25.2697029 55.2554779,25.3113594 
		54.3203583,26.46311 	"/>
	<polygon class="st2" points="60.7703705,28.3688927 59.0747414,28.0020294 57.8112526,29.1908665 57.6361809,27.4648609 
		56.1150894,26.6305809 57.7025185,25.9307137 58.0259209,24.226263 59.1820793,25.5197277 60.9030457,25.3005981 
		60.030159,26.7998695 	"/>
	<polygon class="st2" points="53.6533623,32.8320999 51.7404785,32.5997047 50.464592,34.0437431 50.0945015,32.152668 
		48.3268661,31.3854618 50.0110207,30.44911 50.1944504,28.5309105 51.6054077,29.8432884 53.4864044,29.4249821 
		52.6742706,31.17243 	"/>
	<polygon class="st2" points="45.6919632,29.4545383 45.3519325,29.4660282 45.1686287,29.7526531 45.0526237,29.4328136 
		44.7233849,29.3470535 44.9917221,29.1378918 44.9715424,28.7982635 45.2533913,28.9888344 45.5701599,28.8646946 
		45.4760094,29.1916332 	"/>
	<polygon class="st2" points="48.2251358,23.5438023 47.5413704,23.6588326 47.2484894,24.2873135 46.9277954,23.6725597 
		46.2395706,23.5882282 46.7251358,23.0932598 46.5926666,22.4126568 47.213459,22.7215042 47.8198128,22.3852005 
		47.7179184,23.0710468 	"/>
	<polygon class="st2" points="40.9874992,34.8827667 38.8607483,34.718399 37.5196609,36.3771858 37.0187798,34.3037338 
		35.0267639,33.5408745 36.8439522,32.4237785 36.953907,30.2935219 38.5778732,31.676569 40.6378441,31.1228542 
		39.8243217,33.0947227 	"/>
	<polygon class="st2" points="43.4000435,32.4702187 41.2996712,32.2280731 39.909462,33.8210335 39.4907074,31.7486343 
		37.5461121,30.9187183 39.3876801,29.8800507 39.5760651,27.7741737 41.1329727,29.2046432 43.1939926,28.7330551 
		42.3146477,30.6558018 	"/>
	<polygon class="st2" points="44.0031815,25.5944653 41.9518204,25.6063881 40.7986984,27.303009 40.1534538,25.3557358 
		38.1835365,24.7833328 39.836113,23.5679283 39.7717628,21.5175438 41.4383545,22.7136555 43.3684998,22.0188522 
		42.7459335,23.9734936 	"/>
	<polygon class="st2" points="45.0888252,18.1155758 42.9841156,17.3976612 41.1995201,18.724474 41.2319069,16.500927 
		39.4185638,15.213686 41.5432892,14.557373 42.2071762,12.4350004 43.4879417,14.252923 45.7115898,14.228467 
		44.3784218,16.0083179 	"/>
	<polygon class="st2" points="26.512228,37.1746826 24.8765984,37.2922974 24.0462227,38.7063637 23.4289284,37.1871338 
		21.827467,36.8343697 23.0815887,35.7778206 22.9222088,34.1457291 24.3145924,35.0119781 25.8175507,34.3560562 
		25.4239693,35.9479752 	"/>
	<polygon class="st2" points="29.8897915,36.8128014 28.8819714,36.5182915 28.0680122,37.1815453 28.0366745,36.1320419 
		27.1543541,35.5628777 28.142807,35.2087593 28.4114628,34.1937408 29.0536976,35.0243874 30.1020565,34.9662361 
		29.5105267,35.8337212 	"/>
	<polygon class="st2" points="33.2673531,35.8477821 32.0244179,35.6434021 31.1514149,36.5514374 30.9617023,35.306179 
		29.8283367,34.7565041 30.9540253,34.1912689 31.1265697,32.9435158 32.0119972,33.8394394 33.2519989,33.6179619 
		32.6735344,34.736908 	"/>
	<polygon class="st2" points="25.9090919,31.2639465 24.7571907,30.7064552 23.6449108,31.3393116 23.8191605,30.0715141 
		22.8735638,29.2092361 24.1331577,28.9831867 24.661026,27.8174133 25.2652473,28.9455051 26.5370865,29.0872936 
		25.6509209,30.0105419 	"/>
	<polygon class="st2" points="24.8234463,27.4038754 23.0859299,27.0317783 21.7943821,28.2521553 21.6113453,26.4846954 
		20.0515881,25.6334782 21.6759796,24.9132233 22.0035439,23.1667652 23.1905117,24.4890823 24.9527168,24.260931 
		24.0619087,25.7984219 	"/>
	<polygon class="st2" points="27.9597549,24.0263119 27.2922153,23.7760181 26.7075901,24.1840267 26.7393532,23.4718132 
		26.1706562,23.0418835 26.8578262,22.852005 27.0909748,22.1782856 27.4839077,22.7731476 28.1966991,22.7866955 
		27.7523746,23.3442192 	"/>
	<polygon class="st2" points="19.9983559,35.4859009 18.8788662,34.3777771 17.3313675,34.6717758 18.0393124,33.2646484 
		17.2815018,31.8837395 18.8385258,32.1222115 19.9176712,30.9747639 20.17202,32.529274 21.5967808,33.2010231 
		20.1969528,33.9232903 	"/>
</g>
</svg>
